<svg width="27" height="27" viewBox="0 0 27 27" fill="none" xmlns="http://www.w3.org/2000/svg">
<path d="M1 24.0769V2.92308C1 2.41304 1.20261 1.9239 1.56326 1.56326C1.9239 1.20261 2.41304 1 2.92308 1H24.0769C24.5869 1 25.0762 1.20261 25.4367 1.56326C25.7973 1.9239 26 2.41304 26 2.92308V24.0769C26 24.5869 25.7973 25.0762 25.4367 25.4367C25.0762 25.7973 24.5869 26 24.0769 26H18.3077V16.8846H19.6731C19.9842 16.8846 20.2825 16.761 20.5025 16.541C20.7225 16.321 20.8462 16.0227 20.8462 15.7115V14.2308C20.8462 14.0767 20.8158 13.9242 20.7569 13.7818C20.6979 13.6395 20.6115 13.5102 20.5025 13.4013C20.3937 13.2923 20.2642 13.2059 20.1219 13.147C19.9796 13.088 19.8271 13.0577 19.6731 13.0577H18.3846V11.25C18.3846 9.63462 19.1154 9.63461 19.8462 9.63461H20.7885C20.9433 9.641 21.0975 9.61329 21.2404 9.55348C21.3833 9.49367 21.5113 9.40319 21.6154 9.28846C21.7271 9.18208 21.8156 9.05363 21.8752 8.91131C21.9348 8.76896 21.9642 8.61583 21.9615 8.46154V7.03846C21.9667 6.88187 21.941 6.72579 21.8856 6.57917C21.8304 6.43254 21.7469 6.29823 21.6396 6.18392C21.5325 6.06963 21.4038 5.97756 21.2612 5.913C21.1185 5.84844 20.9642 5.81265 20.8077 5.80769H18.5962C17.9509 5.78342 17.308 5.89954 16.7119 6.148C16.1159 6.39644 15.5809 6.77133 15.1439 7.24673C14.7069 7.72215 14.3783 8.28675 14.1808 8.90156C13.9833 9.51637 13.9216 10.1667 14 10.8077V13.0577H12.7692C12.6136 13.0551 12.459 13.0836 12.3144 13.1414C12.1698 13.1992 12.0382 13.2852 11.9273 13.3944C11.8163 13.5036 11.7282 13.6338 11.668 13.7774C11.6079 13.921 11.5769 14.0751 11.5769 14.2308V15.7115C11.5769 15.8672 11.6079 16.0213 11.668 16.1649C11.7282 16.3085 11.8163 16.4387 11.9273 16.5479C12.0382 16.6571 12.1698 16.7431 12.3144 16.8009C12.459 16.8587 12.6136 16.8872 12.7692 16.8846H14V26H2.92308C2.41304 26 1.9239 25.7973 1.56326 25.4367C1.20261 25.0762 1 24.5869 1 24.0769Z" stroke="white" stroke-linecap="round" stroke-linejoin="round"/>
</svg>
