<svg width="27" height="27" viewBox="0 0 27 27" fill="none" xmlns="http://www.w3.org/2000/svg">
<path d="M20.7273 6.79987C20.4398 6.79987 20.2068 6.56683 20.2068 6.27936C20.2068 5.99189 20.4398 5.75885 20.7273 5.75885" stroke="white" stroke-linecap="round" stroke-linejoin="round"/>
<path d="M20.7275 6.79987C21.0151 6.79987 21.2481 6.56683 21.2481 6.27936C21.2481 5.99189 21.0151 5.75885 20.7275 5.75885" stroke="white" stroke-linecap="round" stroke-linejoin="round"/>
<path d="M1 6.35714C1 3.39848 3.39846 1 6.35713 1H20.6429C23.6015 1 26 3.39848 26 6.35714V20.6429C26 23.6015 23.6015 26 20.6429 26H6.35713C3.39846 26 1 23.6015 1 20.6429V6.35714Z" stroke="white" stroke-linecap="round" stroke-linejoin="round"/>
<path d="M13.5001 18.809C16.4323 18.809 18.8093 16.432 18.8093 13.4998C18.8093 10.5676 16.4323 8.19055 13.5001 8.19055C10.5679 8.19055 8.19092 10.5676 8.19092 13.4998C8.19092 16.432 10.5679 18.809 13.5001 18.809Z" stroke="white" stroke-linecap="round" stroke-linejoin="round"/>
</svg>