<svg width="27" height="27" viewBox="0 0 27 27" fill="none" xmlns="http://www.w3.org/2000/svg">
<path d="M7.65634 19.0063C6.25693 20.2939 4.6507 21.2386 2.93323 21.784C2.74405 21.8646 2.5806 22.0113 2.46511 22.2041C2.3496 22.3972 2.28763 22.6272 2.28763 22.863C2.28763 23.0987 2.3496 23.3288 2.46511 23.5218C2.5806 23.7149 2.74405 23.8616 2.93323 23.9419C16.495 30.4616 25.1181 20.3837 23.805 9.20383L26 3.8779H23.4523C20.2774 -0.690464 11.8503 -0.460898 13.2418 9.2727C13.2418 9.2727 8.73423 10.2139 2.97242 3.57946C2.83914 3.42533 2.67093 3.31916 2.48773 3.27354C2.30453 3.22793 2.11401 3.24475 1.93873 3.32205C1.76344 3.39934 1.61074 3.53387 1.49871 3.70969C1.38668 3.88549 1.32001 4.09525 1.30659 4.31407C0.697353 7.24758 1.00224 10.3395 2.16636 13.0331C3.33048 15.7266 5.27732 17.8449 7.65634 19.0063Z" stroke="white" stroke-linecap="round" stroke-linejoin="round"/>
</svg>
